<svg width="21" height="24" viewBox="0 0 21 24" fill="none" xmlns="http://www.w3.org/2000/svg">
<path d="M17.7249 13.8828C16.8394 12.8708 15.3986 12.8708 14.5131 13.8828L13.5446 14.9897C11.1399 13.4921 9.1939 11.268 7.88326 8.51951L8.85171 7.41265C9.73748 6.40062 9.73748 4.75383 8.85171 3.7418L6.24192 0.75902C5.35645 -0.253007 3.91559 -0.253007 3.03012 0.75902L0.942414 3.14511C-0.253459 4.5119 -0.313116 6.86164 0.774343 9.7617C1.71856 12.2797 3.44651 15.0472 5.6399 17.554C7.83329 20.0609 10.2547 22.0358 12.4578 23.115C13.6634 23.7055 14.7599 24 15.7075 24C16.7543 24 17.6192 23.6404 18.247 22.9229L20.3347 20.5365V20.5368C20.7638 20.0464 21 19.3947 21 18.7014C21 18.0078 20.7638 17.3561 20.3347 16.866L17.7249 13.8828ZM16.6008 21.0414C16.2595 21.4315 15.2099 21.5682 13.3751 20.6697C11.4376 19.7207 9.27506 17.9458 7.28608 15.6726C5.2971 13.3993 3.74449 10.9281 2.91413 8.71368C2.12769 6.6166 2.2473 5.41663 2.58859 5.02656L4.63632 2.68616L7.16555 5.57723L5.95333 6.96305C5.40521 7.58951 5.27287 8.53959 5.62446 9.32733C7.21825 12.8992 9.71265 15.7501 12.8378 17.5717C13.5274 17.9735 14.3587 17.8226 14.9068 17.1958L16.119 15.8103L18.6485 18.7014L16.6008 21.0414Z" fill="white"/>
</svg>
